<svg xmlns="http://www.w3.org/2000/svg" viewBox="0 0 24 24" id="Yamaha"><path d="M14.25 24a.75.75 0 0 1-.75-.75V8.954c0-.459-.133-.898-.374-1.235-.704-.983-.853-2.367-.379-3.526l.066-.161L12 2.417l-.813 1.614.066.16c.474 1.16.325 2.544-.38 3.528a2.14 2.14 0 0 0-.373 1.235V23.25a.75.75 0 0 1-1.5 0V8.954c0-.77.232-1.519.653-2.108.405-.565.49-1.403.211-2.086l-.195-.475a.754.754 0 0 1 .024-.622L11.33.413c.256-.506 1.084-.506 1.34 0l1.637 3.25a.75.75 0 0 1 .024.622l-.195.476c-.279.682-.194 1.52.21 2.084.422.59.654 1.339.654 2.109V23.25a.75.75 0 0 1-.75.75z" fill="#ffffff" class="color000000 svgShape"></path><path d="m23.25 21-.043-.001-3.633-.208a.747.747 0 0 1-.55-.29l-.314-.406c-.451-.583-1.22-.928-1.912-.861a3.655 3.655 0 0 1-2.152-.488L2.265 11.598a.75.75 0 0 1 .75-1.298l12.381 7.148c.398.23.845.334 1.256.293 1.199-.119 2.478.446 3.244 1.436l.105.137 1.805.103-.991-1.511-.172-.023c-1.239-.168-2.364-.99-2.864-2.091a2.134 2.134 0 0 0-.883-.941L4.515 7.701a.75.75 0 0 1 .749-1.299l12.381 7.148c.667.385 1.199.96 1.498 1.62.288.633.972 1.126 1.701 1.225l.511.069c.215.029.406.15.525.332l1.996 3.042A.751.751 0 0 1 23.25 21z" fill="#ffffff" class="color000000 svgShape"></path><path d="M.75 21a.748.748 0 0 1-.627-1.162l1.996-3.042a.754.754 0 0 1 .525-.332l.51-.069c.73-.099 1.414-.592 1.702-1.225a3.637 3.637 0 0 1 1.498-1.62l12.381-7.148a.749.749 0 1 1 .75 1.298L7.104 14.849a2.14 2.14 0 0 0-.883.941c-.5 1.102-1.625 1.923-2.865 2.091l-.171.023-.991 1.511 1.805-.103.105-.136c.767-.99 2.031-1.556 3.244-1.436.408.042.858-.063 1.256-.293l12.381-7.148a.749.749 0 1 1 .75 1.298L9.354 18.746a3.679 3.679 0 0 1-2.152.488c-.703-.07-1.461.278-1.912.861l-.314.406a.75.75 0 0 1-.55.29l-3.633.208L.75 21z" fill="#ffffff" class="color000000 svgShape"></path></svg>